<svg width="220" height="149" viewBox="0 0 220 149" fill="none" xmlns="http://www.w3.org/2000/svg">
<path fill-rule="evenodd" clip-rule="evenodd" d="M80.4927 0.238764C80.4088 0.373199 79.7655 0.483362 79.0627 0.483362C78.2121 0.483362 77.565 0.691551 77.1265 1.10637C76.7643 1.44931 75.802 2.30509 74.9876 3.0087C73.4344 4.35026 71.1598 7.53782 70.103 9.85341C66.6505 17.4185 65.8017 20.0805 64.4068 27.7128C63.2653 33.9607 62.5278 44.4277 62.5103 54.6311L62.4993 61.0106L61.5673 58.3654C60.6619 55.7962 59.9823 53.6334 59.4516 51.6334C59.3093 51.0972 58.9483 50.1869 58.6497 49.6106C58.1952 48.7337 54.7259 38.6693 51.6915 29.4244C51.2702 28.1407 50.7264 26.6492 50.483 26.1099C50.2397 25.5706 50.0405 25.0244 50.0405 24.8962C50.0405 23.9664 48.2628 21.2269 47.4847 20.9568C46.2856 20.5411 47.2945 17.421 50.9988 10.0912C52.3815 7.35452 52.394 6.19221 51.0519 5.14162C48.6932 3.29562 46.7644 5.55396 43.2037 14.3315C41.9099 17.5209 39.8469 22.3276 38.7642 24.6753C38.4295 25.401 38.1559 26.1108 38.1559 26.2533C38.1559 26.8577 35.1788 34.3951 33.9037 37.0188C33.6623 37.5157 33.4646 38.1459 33.4646 38.4191C33.4646 38.6924 32.8137 40.7363 32.0184 42.9613C30.4318 47.4008 27.4635 55.8473 26.7147 58.0542C26.4536 58.8244 26.1127 59.7347 25.9576 60.077C25.8024 60.4193 25.1113 62.3798 24.4213 64.4337C23.0749 68.4422 20.6339 75.4238 19.2528 79.2154C18.7852 80.4991 18.1219 82.4596 17.7781 83.5721C17.4347 84.6847 17.0278 85.875 16.8737 86.2173C16.7198 86.5596 16.0471 88.4501 15.3784 90.4184C12.6834 98.3529 11.7689 100.848 11.5199 100.947C11.3764 101.004 11.2591 101.341 11.2591 101.696C11.2591 102.311 9.34475 108.424 8.11501 111.735C7.58708 113.157 5.07442 121.425 4.37948 124.027C3.44935 127.511 0 144.978 0 146.204C0 150.141 5.62487 149.823 6.0793 145.861C7.55017 133.038 10.1532 122.607 16.5765 103.8C18.8271 97.2102 21.442 89.5082 22.3875 86.6841C23.3329 83.86 24.2274 81.2693 24.3754 80.927C24.5233 80.5847 24.8135 79.8145 25.0203 79.2154C25.227 78.6164 25.5069 77.8462 25.6426 77.5039C25.7781 77.1615 26.31 75.6211 26.8248 74.0807C27.3393 72.5403 28.6979 68.6193 29.8438 65.3673C30.9898 62.1153 32.5426 57.6341 33.2941 55.4091C34.046 53.1841 35.1087 50.1732 35.656 48.7184C36.2031 47.2636 36.7923 45.5831 36.9649 44.9841C37.6533 42.5994 43.7401 26.9336 44.1582 26.4705C44.5254 26.0641 44.8347 26.5748 45.8518 29.2688C46.304 30.4669 46.7935 31.7272 46.9392 32.0695C47.2476 32.794 49.5514 39.5105 50.1947 41.561C50.4361 42.3312 51.2049 44.7818 51.9029 47.0069C52.6007 49.2319 53.1708 51.3745 53.1699 51.7681C53.169 52.1615 53.3935 52.9177 53.6694 53.4486C53.9452 53.9792 54.1842 54.8822 54.2004 55.4558C54.217 56.029 54.3249 56.4983 54.4406 56.4983C54.5563 56.4983 54.7415 57.176 54.8519 58.0044C54.9626 58.8332 55.403 60.2326 55.8305 61.1148C56.2583 61.9974 56.6083 62.9319 56.6083 63.1917C56.6083 63.4516 56.7347 63.9075 56.8895 64.2047C57.2954 64.9851 58.6503 69.3636 59.2711 71.9024C59.5638 73.1005 60.0542 74.5709 60.3604 75.1699C61.7784 77.9439 61.2199 82.0162 59.4215 82.0162C59.278 82.0162 58.9268 82.7164 58.6412 83.5721C58.3557 84.4279 58.0213 85.1281 57.8984 85.1281C57.7755 85.1281 57.1184 85.8635 56.4379 86.7619C55.0192 88.6356 46.0998 97.5924 43.3441 99.9104C42.3274 100.766 41.2718 101.681 40.9985 101.945C40.7252 102.209 39.5899 103.189 38.4758 104.123C37.3615 105.058 36.1267 106.096 35.732 106.429C32.7243 108.972 26.3398 113.476 23.7692 114.87C23.1672 115.196 22.4635 115.616 22.2055 115.804C21.9475 115.992 20.6333 116.619 19.285 117.198C15.8366 118.679 14.9593 120.6 16.8646 122.495C18.013 123.638 19.1918 123.673 21.2672 122.627C22.1157 122.199 22.9908 121.838 23.2116 121.826C23.4324 121.813 24.8091 121.047 26.2713 120.123C27.7334 119.2 29.4926 118.141 30.1807 117.771C30.8687 117.401 31.9446 116.697 32.5714 116.206C33.1981 115.715 33.8668 115.314 34.0569 115.314C34.2471 115.314 34.4028 115.204 34.4028 115.07C34.4028 114.936 34.79 114.598 35.2629 114.319C35.7358 114.041 36.4214 113.555 36.7857 113.241C38.2716 111.958 39.5073 110.983 41.1014 109.834C42.0253 109.168 43.0145 108.239 43.2997 107.77C43.585 107.3 44.1107 106.76 44.4682 106.57C44.8257 106.38 46.1201 105.221 47.3446 103.995C48.5693 102.77 50.4158 100.986 51.4479 100.031C54.6877 97.0344 58.6334 92.7586 61.4835 89.1568C64.5322 85.3033 64.81 85.2327 65.23 88.2043C65.4924 90.0599 66.289 92.6235 66.7884 93.2191C67.2726 93.7964 69.115 98.487 69.1169 99.1474C69.1178 99.4128 69.2304 99.7629 69.3674 99.9254C69.5044 100.088 69.7949 100.781 70.0135 101.466C70.2322 102.15 70.5308 102.991 70.6772 103.333C70.8239 103.675 71.3327 105.006 71.8078 106.289C72.2829 107.573 72.787 108.756 72.9281 108.919C73.0688 109.082 73.1842 109.509 73.1842 109.868C73.1842 110.227 73.3037 110.654 73.4494 110.817C73.5955 110.98 74.3248 112.653 75.0698 114.536C76.3984 117.892 77.6294 120.223 78.3131 120.677C78.9408 121.094 80.7013 120.938 80.8898 120.449C80.989 120.192 81.2633 119.982 81.4997 119.982C82.5728 119.982 82.2938 118.437 80.3672 113.705C79.2989 111.081 77.8965 107.464 77.251 105.667C76.6051 103.87 75.6284 101.209 75.0801 99.7542C72.7655 93.6131 72.8005 94.4235 74.7271 91.5947C75.5755 90.3487 76.7077 88.419 77.2435 87.3065C78.6318 84.4229 79.1609 83.461 79.5591 83.0982C79.9569 82.7356 80.3707 82.0821 81.3286 80.3046C81.6974 79.62 82.245 78.7798 82.5452 78.4374C82.8455 78.0951 83.2774 77.3458 83.5054 76.7726C83.7334 76.199 84.3892 75.1705 84.9635 74.4868C85.5374 73.8031 86.0071 73.1282 86.0071 72.9869C86.0071 71.9746 91.4243 67.7012 92.7078 67.7012C93.8422 67.7012 94.0139 72.137 92.994 75.1014C92.4902 76.5662 91.0352 82.0641 90.917 82.9498C90.6068 85.2759 85.1408 93.8948 82.5969 96.0697C80.6447 97.7386 81.7036 100.688 84.2551 100.688C86.996 100.688 92.9058 92.9462 95.5648 85.8731C96.0083 84.6931 96.5535 83.4467 96.7765 83.1029C97.1671 82.5001 97.984 79.9844 98.9482 76.4147C99.9662 72.6455 99.7876 65.8089 98.6411 64.668C98.4009 64.429 98.2045 64.0497 98.2045 63.825C98.2045 60.8108 87.4968 61.9579 84.3936 65.3044C83.759 65.9891 82.3204 67.7448 81.0278 69.4128C80.497 70.0974 79.8368 70.9377 79.5603 71.28C77.4499 73.8924 73.3453 81.4068 72.975 83.3356C72.6895 84.8244 71.3349 87.3675 70.904 87.2243C69.5945 86.7902 69.3999 76.1035 70.7019 76.1035C70.8295 76.1035 71.0819 75.7182 71.2627 75.2477C71.4438 74.7772 71.9495 73.5517 72.3867 72.5248C72.8236 71.4978 73.182 70.5284 73.1827 70.371C73.1836 70.2132 73.366 69.8631 73.5877 69.593C74.3671 68.6442 77.2113 61.6924 78.0657 58.6477C80.4933 49.9984 81.8544 44.3595 82.5937 39.8877C82.9296 37.8546 83.2568 36.1042 83.3206 35.9977C83.3844 35.891 83.6646 33.8433 83.9433 31.4472C84.2222 29.051 84.5882 25.9701 84.7567 24.6009C85.5358 18.2703 85.7003 5.9806 85.0332 3.93668C84.5215 2.36826 83.1404 0.497988 82.4886 0.489897C82.1878 0.486474 81.9413 0.373199 81.9413 0.238764C81.9413 -0.0795879 80.6903 -0.0795879 80.4927 0.238764ZM79.8371 11.6064C79.8171 13.9609 79.6548 17.3579 79.4762 19.155C79.2973 20.9521 79.0668 23.7529 78.9639 25.3789C78.7928 28.0779 78.5354 29.8184 77.0536 38.2934C76.784 39.8338 76.0988 42.9847 75.5308 45.2953C74.9629 47.6059 74.3226 50.2666 74.1084 51.208C73.1192 55.5532 69.7339 64.5893 69.0953 64.5893C68.4426 64.5893 68.0976 44.1047 68.6603 38.7602C70.2153 23.9931 71.1 20.2918 74.8237 12.9753C78.6168 5.52284 79.8909 5.17492 79.8371 11.6064ZM143.795 17.4565C132.623 20.4959 128.081 56.7397 136.384 76.5902L137.646 79.6057L136.948 80.3441C132.858 84.6769 136.748 90.48 143.429 90.0107C145.501 89.8654 146.084 89.9214 146.397 90.297C149.288 93.7631 158.235 95.6029 164.039 93.9246C169.004 92.4888 174.987 87.7269 177.927 82.8713C178.376 82.1294 178.938 81.6434 179.468 81.5382C179.927 81.4467 180.77 81.2242 181.342 81.0434C182.689 80.617 182.582 80.4079 183.284 84.8574C184.429 92.1231 184.666 91.5088 176.775 101.777C170.538 109.893 167.63 119.012 169.033 126.05C169.883 130.314 170.065 130.891 170.956 132.171C175.658 138.923 182.498 139.767 187.261 134.183C187.648 133.73 187.965 133.277 187.965 133.176C187.965 133.077 188.248 132.636 188.595 132.197C191.061 129.078 191.862 119.701 190.914 105.045C190.543 99.3052 190.391 97.4551 190.153 95.7426L189.876 93.7541L191.97 91.1307C193.121 89.688 194.722 87.6612 195.527 86.6268C196.331 85.5921 197.668 83.9642 198.498 83.0089C199.327 82.0535 200.407 80.809 200.898 80.2436C201.846 79.1516 202.351 78.9428 202.351 79.6427C202.351 79.8776 202.961 80.6292 203.707 81.3129C210.918 87.9267 224.97 75.6933 218.21 68.6865C215.23 65.597 208.764 65.174 208.134 68.0277C207.661 70.169 209.233 71.7468 211.84 71.7468C215.039 71.7468 215.258 73.8196 212.306 76.1623C208.997 78.7878 207.127 78.3833 206.913 74.9953C206.664 71.0615 203.708 68.7677 201.634 70.8991C199.614 72.9729 190.154 84.4373 190.154 84.8098C190.154 85.0656 189.204 85.5317 189.032 85.3603C188.98 85.3086 188.788 84.01 188.606 82.4742C187.751 75.2776 185.983 73.1082 182.156 74.5562C181.046 74.976 181.073 75.2079 181.762 71.1244C184.093 57.3236 179.188 50.0967 172.307 57.1947C167.243 62.4184 167.083 73.674 172 78.8096C173.217 80.0806 173.241 79.9617 171.306 82.3768C166.069 88.9156 158.449 91.0672 152.306 87.7409C150.482 86.7529 150.47 86.7087 151.65 85.3712C153.357 83.4365 155.322 80.2377 156.024 78.2501C156.411 77.155 156.846 75.979 156.992 75.6367C159.208 70.4214 160.04 58.3013 158.871 48.2516C158.553 45.5131 158.204 42.5023 158.097 41.561C156.653 28.91 149.615 15.336 145.371 17.0152C145.318 17.0364 144.608 17.2349 143.795 17.4565ZM146.469 23.5895C153.221 32.5945 156.104 59.6024 151.793 73.4583L151.018 75.9479H147.989C146.324 75.9479 144.372 76.0637 143.651 76.2056L142.341 76.4629L141.736 75.1164C135.943 62.204 136.413 37.3689 142.677 25.4315C144.255 22.4244 145.238 21.9467 146.469 23.5895ZM176.739 61.7108C176.929 64.8081 176.289 71.5532 175.658 73.0911L175.262 74.0561L174.704 72.6682C173.87 70.5975 173.703 67.2587 174.326 65.1246C175.159 62.275 176.645 60.1728 176.739 61.7108ZM105.996 69.6562C105.227 70.2434 104.801 71.2286 104.323 73.5243C104.08 74.6863 103.723 76.1968 103.528 76.8815C102.545 80.3258 103.261 93.3685 104.53 95.1629C107.505 99.368 110.065 97.0851 112.468 88.0844C113.792 83.1206 114.217 81.6393 114.43 81.2438C114.521 81.0754 114.625 80.7253 114.662 80.4658C114.754 79.8201 115.556 77.7176 115.805 77.4693C115.917 77.3585 116.177 77.6361 116.383 78.0861C116.589 78.5361 116.876 78.9042 117.02 78.9042C117.164 78.9042 117.282 79.0455 117.282 79.2182C117.282 80.9979 123.247 87.9289 124.779 87.9289C127.165 87.9289 128.52 84.4877 126.623 83.2454C125.995 82.8343 123.85 79.6732 123.85 79.1591C123.85 78.8479 123.733 78.593 123.59 78.593C123.447 78.593 123.132 78.2078 122.889 77.7373C122.647 77.2667 121.99 76.153 121.429 75.2626C120.869 74.3723 120.41 73.5119 120.41 73.3504C120.41 69.0755 113.121 69.2659 110.967 73.5971L110.17 75.1985L110.326 73.0317C110.552 69.8899 108.146 68.014 105.996 69.6562ZM147.619 81.667C147.619 82.1515 146.703 82.7136 146.216 82.5275C145.344 82.1945 145.672 81.3938 146.681 81.3938C147.197 81.3938 147.619 81.5167 147.619 81.667ZM185.265 102.944C187.046 122.5 183.431 136.169 177.746 131.372C172.026 126.547 172.929 117.484 180.215 106.6C184.907 99.5896 184.956 99.5544 185.265 102.944Z" fill="white"/>
</svg>
