<svg width="29" height="28" viewBox="0 0 29 28" fill="none" xmlns="http://www.w3.org/2000/svg">
<path d="M14.6431 0.0899963C7.18125 0.0899963 1.11458 6.33 1.11458 14C1.11458 16.575 1.8 19.065 3.09305 21.25L1.01736 26.535C0.876388 26.895 0.949304 27.305 1.20694 27.59C1.39167 27.8 1.6493 27.91 1.91667 27.91C2.01875 27.91 2.11597 27.895 2.21805 27.86L7.80833 26C9.87917 27.25 12.2319 27.91 14.6431 27.91C22.1 27.91 28.1667 21.67 28.1667 14C28.1667 6.33 22.1 0.0899963 14.6431 0.0899963ZM14.6431 25.91C12.4458 25.91 10.3069 25.27 8.45486 24.065C8.29931 23.96 8.11458 23.91 7.93472 23.91C7.83264 23.91 7.73542 23.925 7.63333 23.96L3.59861 25.3L5.08611 21.52C5.20764 21.215 5.17361 20.865 4.99375 20.59C3.72986 18.635 3.05903 16.355 3.05903 14C3.05903 7.43 8.25556 2.09 14.6431 2.09C21.0257 2.09 26.2222 7.43 26.2222 14C26.2222 20.57 21.0257 25.91 14.6431 25.91Z" fill="black"/>
<path d="M14.6382 5.85501C13 5.85501 11.6729 7.22501 11.6729 8.90501C11.6729 10.585 13.0049 11.955 14.6382 11.955C16.2715 11.955 17.6083 10.585 17.6083 8.90501C17.6083 7.22501 16.2764 5.85501 14.6382 5.85501ZM14.6382 9.96001C14.0743 9.96001 13.6174 9.49001 13.6174 8.91001C13.6174 8.33001 14.0743 7.86001 14.6382 7.86001C15.2021 7.86001 15.6639 8.33001 15.6639 8.91001C15.6639 9.49001 15.2069 9.96001 14.6382 9.96001Z" fill="black"/>
<path d="M16.6361 12.73H12.6451C12.1104 12.73 11.6729 13.18 11.6729 13.73V21.145C11.6729 21.695 12.1104 22.145 12.6451 22.145H16.6361C17.1708 22.145 17.6083 21.695 17.6083 21.145V13.73C17.6083 13.18 17.1708 12.73 16.6361 12.73ZM15.6639 20.145H13.6174V14.73H15.6639V20.145Z" fill="black"/>
</svg>
