<svg width="59" height="25" viewBox="0 0 59 25" fill="none" xmlns="http://www.w3.org/2000/svg">
<g clip-path="url(#clip0)">
<path d="M55.4958 10.431C55.3234 9.91379 54.8062 9.65517 54.2889 9.65517H4.1379L10.7758 2.24138C11.2069 1.72414 11.2069 0.862068 10.6896 0.431034C10.1724 -8.9407e-07 9.31031 -8.9407e-07 8.87927 0.51724L0.344792 10C0.0861709 10.3448 -0.0862429 10.6897 -3.59751e-05 11.1207V11.2069C-3.59751e-05 11.2931 -3.59677e-05 11.3793 0.0861709 11.3793C0.0861709 11.4655 0.172378 11.5517 0.258585 11.5517L0.344792 11.6379L8.87927 21.2069C9.13789 21.4655 9.48272 21.6379 9.82755 21.6379C10.1724 21.6379 10.431 21.5517 10.6896 21.2931C11.2069 20.7759 11.2931 20 10.7758 19.4828L4.2241 12.069H54.3751C55.0648 12.069 55.6682 11.4655 55.6682 10.7759C55.582 10.6897 55.582 10.5172 55.4958 10.431Z" fill="#6F6F6F"/>
</g>
<defs>
<clipPath id="clip0">
<rect width="58.75" height="25" fill="white"/>
</clipPath>
</defs>
</svg>
