<svg width="23" height="29" viewBox="0 0 23 29" fill="none" xmlns="http://www.w3.org/2000/svg">
<path d="M9.74661 11.8304L3.60837 5.6383C3.15596 5.18126 3.15596 4.44118 3.60837 3.98414C4.06216 3.5271 4.79632 3.5271 5.24873 3.98414L11.387 10.1758L17.5252 3.98414C17.9788 3.5271 18.7118 3.5271 19.1656 3.98414C19.618 4.44118 19.618 5.18126 19.1656 5.6383L13.0273 11.8304L19.1656 18.0222C19.618 18.4786 19.618 19.2191 19.1656 19.6768C18.9381 19.9049 18.6419 20.0193 18.3454 20.0193C18.048 20.0193 17.7515 19.9051 17.5254 19.6768L11.3872 13.4852L5.24896 19.6768C5.02287 19.9049 4.72525 20.0193 4.42901 20.0193C4.13254 20.0193 3.8363 19.9051 3.60883 19.6768C3.15642 19.2191 3.15642 18.4786 3.60883 18.0222L9.74661 11.8304Z" fill="white"/>
</svg>
