<svg width="25" height="25" viewBox="0 0 25 25" fill="none" xmlns="http://www.w3.org/2000/svg">
<path d="M21.3051 6.23956C18.4403 4.09581 15.6956 4.15606 15.6956 4.15606L15.4151 4.47656C18.8208 5.49831 20.4036 7.00081 20.4036 7.00081C15.5308 4.31806 9.3243 4.33731 4.25605 7.00081C4.25605 7.00081 5.8988 5.41806 9.50505 4.39631L9.3048 4.15581C9.3048 4.15581 6.58005 4.09581 3.6953 6.23931C3.6953 6.23931 0.810303 11.4281 0.810303 17.8191C0.810303 17.8191 2.4933 20.7041 6.9208 20.8443C6.9208 20.8443 7.66205 19.9628 8.26305 19.2016C5.7188 18.4403 4.75705 16.8576 4.75705 16.8576C6.35555 17.8578 7.9718 18.4838 9.98605 18.8811C13.2631 19.5556 17.3393 18.8621 20.3838 16.8576C20.3838 16.8576 19.3821 18.4803 16.7576 19.2216C17.3586 19.9628 18.0798 20.8243 18.0798 20.8243C22.5073 20.6841 24.1901 17.7991 24.1901 17.8193C24.1898 11.4283 21.3051 6.23956 21.3051 6.23956ZM8.7638 15.9561C7.6418 15.9561 6.7203 14.9743 6.7203 13.7523C6.8023 10.8256 10.7458 10.8346 10.8073 13.7523C10.8073 14.9743 9.90555 15.9561 8.7638 15.9561ZM16.0761 15.9561C14.9541 15.9561 14.0326 14.9743 14.0326 13.7523C14.1226 10.8313 18.0168 10.8301 18.1196 13.7523C18.1196 14.9743 17.2181 15.9561 16.0761 15.9561Z" fill="black"/>
</svg>
