<svg width="28" height="28" viewBox="0 0 28 28" fill="none" xmlns="http://www.w3.org/2000/svg">
<path d="M13.4321 21.8789L13.4866 21.8244C12.5157 22.7914 11.2013 23.3344 9.83103 23.3344C8.46076 23.3344 7.14631 22.7914 6.17547 21.8244C5.20846 20.8536 4.66553 19.5392 4.66553 18.1689C4.66553 16.7986 5.20846 15.4842 6.17547 14.5133L8.30658 12.3822" stroke="#AAAAAA" stroke-width="2" stroke-linecap="round" stroke-linejoin="round"/>
<path d="M14.5676 6.12111L14.5132 6.17555C15.484 5.20855 16.7985 4.66561 18.1687 4.66561C19.539 4.66561 20.8535 5.20855 21.8243 6.17555C22.7913 7.1464 23.3342 8.46084 23.3342 9.83111C23.3342 11.2014 22.7913 12.5158 21.8243 13.4867L19.6932 15.6178" stroke="#AAAAAA" stroke-width="2" stroke-linecap="round" stroke-linejoin="round"/>
<path d="M17.7957 23.0222L10.2046 4.97778" stroke="#AAAAAA" stroke-width="2" stroke-linecap="round" stroke-linejoin="round"/>
</svg>
