<svg width="18" height="21" viewBox="0 0 18 21" fill="none" xmlns="http://www.w3.org/2000/svg">
<path d="M11.9011 4.48387H6.09877C5.22055 4.48387 4.50235 3.89638 4.50235 3.17835C4.50235 2.46065 5.22055 1.87299 6.09877 1.87299H11.9011C12.7793 1.87299 13.4977 2.46048 13.4977 3.17835C13.4977 3.89638 12.7793 4.48387 11.9011 4.48387Z" fill="black"/>
<path d="M6.09877 12.316H11.9011C12.7793 12.316 13.4977 12.9035 13.4977 13.6216C13.4977 14.3393 12.7793 14.9269 11.9011 14.9269H6.09877C5.22055 14.9269 4.50235 14.3394 4.50235 13.6216C4.50235 12.9035 5.22055 12.316 6.09877 12.316Z" fill="black"/>
<path d="M2.49659 7.0946H15.5032C16.3814 7.0946 17.0998 7.68193 17.0998 8.39996C17.0998 9.118 16.3814 9.70532 15.5032 9.70532H2.49659C1.61837 9.70532 0.90017 9.118 0.90017 8.39996C0.90017 7.68193 1.61837 7.0946 2.49659 7.0946Z" fill="black"/>
</svg>
