<svg width="32" height="32" viewBox="0 0 32 32" fill="none" xmlns="http://www.w3.org/2000/svg">
<path d="M31.1882 7.06601C30.9108 6.90288 30.5957 6.81368 30.2733 6.80706C29.9509 6.80044 29.6323 6.87663 29.3484 7.02823L25.3026 9.20266C25.869 7.93438 26.236 6.79069 26.236 5.95254C26.236 4.37383 25.6039 2.85978 24.4786 1.74346C23.3533 0.627141 21.827 0 20.2356 0C18.6442 0 17.118 0.627141 15.9927 1.74346C14.8673 2.85978 14.2352 4.37383 14.2352 5.95254C14.2352 6.77693 14.589 7.89587 15.1397 9.13918L11.2274 6.59982C10.9223 6.406 10.5673 6.30374 10.205 6.30535C9.84277 6.30696 9.4887 6.41237 9.1854 6.60889L0.752102 12.3893C0.523767 12.5324 0.335275 12.7301 0.203881 12.9642C0.072487 13.1983 0.00238765 13.4614 0 13.7294V29.9378C0.00167079 30.2305 0.0842827 30.5173 0.23884 30.7667C0.393398 31.0161 0.613976 31.2187 0.876558 31.3524C1.17457 31.512 1.51077 31.5882 1.84911 31.5728C2.18746 31.5574 2.51519 31.4509 2.79719 31.2648L9.98713 26.287C10.0604 26.2427 10.1447 26.2197 10.2305 26.2205C10.3162 26.2213 10.4001 26.246 10.4725 26.2916L18.2228 31.4907C18.6868 31.7981 19.227 31.9733 19.7844 31.9972C20.3419 32.0211 20.8953 31.8928 21.3843 31.6263L31.1131 26.3157C31.3723 26.18 31.5897 25.9775 31.7427 25.7296C31.8956 25.4816 31.9784 25.1974 31.9823 24.9067L32 8.4421C31.9976 8.16237 31.9214 7.88814 31.779 7.6467C31.6366 7.40527 31.4329 7.20506 31.1882 7.06601ZM20.2356 1.4006C21.4522 1.40193 22.6185 1.88194 23.4787 2.7353C24.339 3.58867 24.8228 4.7457 24.8242 5.95254C24.8242 6.82332 24.1931 8.44094 23.0604 10.5413L23.0573 10.547C22.3834 11.796 21.5327 13.2151 20.531 14.7502C20.4992 14.7993 20.4556 14.8398 20.4039 14.8677C20.3523 14.8957 20.2944 14.9104 20.2356 14.9104C20.1768 14.9104 20.1189 14.8957 20.0673 14.8677C20.0157 14.8398 19.972 14.7993 19.9402 14.7502C17.2519 10.6305 15.647 7.34168 15.647 5.95254C15.6484 4.7457 16.1322 3.58867 16.9925 2.7353C17.8527 1.88194 19.0191 1.40193 20.2356 1.4006ZM30.5705 24.9061C30.5659 24.9455 30.551 24.983 30.5272 25.0148C30.5034 25.0466 30.4715 25.0717 30.4348 25.0874L20.7018 30.4C20.4404 30.5406 20.1456 30.6084 19.8485 30.5963C19.5514 30.5841 19.2632 30.4925 19.0143 30.331L11.2646 25.1323C10.9585 24.9302 10.5992 24.8219 10.2315 24.8209C9.86384 24.8199 9.50398 24.9262 9.19677 25.1266L2.00711 30.1043C1.93899 30.1471 1.8606 30.1712 1.78 30.174C1.6994 30.1768 1.6195 30.1583 1.5485 30.1204C1.51123 30.105 1.47884 30.0799 1.45479 30.0478C1.43073 30.0156 1.4159 29.9776 1.41187 29.9378V13.7294C1.41616 13.6918 1.42997 13.6559 1.452 13.625C1.47403 13.5941 1.50357 13.5693 1.53788 13.5527L9.97167 7.77202C10.0441 7.72804 10.1273 7.70469 10.2122 7.70454C10.2972 7.70438 10.3805 7.72743 10.4531 7.77114L16.3949 11.6279C17.1351 12.9623 17.9733 14.3132 18.7552 15.5114C18.9149 15.7567 19.1342 15.9585 19.3928 16.0981C19.6514 16.2378 19.9411 16.311 20.2356 16.311C20.5301 16.311 20.8198 16.2378 21.0784 16.0981C21.3371 15.9585 21.5563 15.7567 21.7161 15.5114C22.546 14.2395 23.4379 12.7959 24.2101 11.3823L30.0199 8.26002C30.0887 8.22399 30.1657 8.20589 30.2435 8.20742C30.3213 8.20894 30.3975 8.23004 30.4649 8.26874C30.4986 8.28463 30.5277 8.30886 30.5492 8.3391C30.5708 8.36935 30.5842 8.40458 30.5881 8.44143L30.5705 24.9061Z" fill="black"/>
<path d="M10.202 10.392C10.0148 10.392 9.83524 10.4657 9.70286 10.5971C9.57047 10.7284 9.49609 10.9065 9.49609 11.0923V21.9469C9.49609 22.1326 9.57047 22.3107 9.70286 22.4421C9.83524 22.5734 10.0148 22.6472 10.202 22.6472C10.3893 22.6472 10.5688 22.5734 10.7012 22.4421C10.8336 22.3107 10.908 22.1326 10.908 21.9469V11.0923C10.908 10.9065 10.8336 10.7284 10.7012 10.5971C10.5688 10.4657 10.3893 10.392 10.202 10.392Z" fill="black"/>
<path d="M20.2356 16.9822C20.0484 16.9822 19.8688 17.056 19.7364 17.1873C19.6041 17.3186 19.5297 17.4967 19.5297 17.6825V28.5371C19.5297 28.7228 19.6041 28.901 19.7364 29.0323C19.8688 29.1636 20.0484 29.2374 20.2356 29.2374C20.4228 29.2374 20.6024 29.1636 20.7348 29.0323C20.8672 28.901 20.9415 28.7228 20.9415 28.5371V17.6825C20.9415 17.4967 20.8672 17.3186 20.7348 17.1873C20.6024 17.056 20.4228 16.9822 20.2356 16.9822Z" fill="black"/>
<path d="M22.7064 5.95251C22.7064 5.46774 22.5615 4.99385 22.29 4.59078C22.0185 4.18771 21.6326 3.87355 21.1811 3.68804C20.7297 3.50253 20.2329 3.45399 19.7536 3.54856C19.2743 3.64314 18.834 3.87658 18.4885 4.21936C18.143 4.56215 17.9076 4.99888 17.8123 5.47434C17.717 5.94979 17.7659 6.44261 17.9529 6.89048C18.1399 7.33835 18.4566 7.72116 18.8629 7.99048C19.2692 8.2598 19.7469 8.40356 20.2356 8.40356C20.8907 8.40283 21.5187 8.14437 21.9819 7.68486C22.4451 7.22536 22.7056 6.60235 22.7064 5.95251ZM19.1767 5.95251C19.1767 5.74475 19.2388 5.54166 19.3552 5.36891C19.4715 5.19617 19.6369 5.06153 19.8304 4.98202C20.0239 4.90252 20.2368 4.88172 20.4422 4.92225C20.6476 4.96278 20.8363 5.06282 20.9844 5.20973C21.1324 5.35664 21.2333 5.54381 21.2742 5.74758C21.315 5.95134 21.294 6.16256 21.2139 6.3545C21.1338 6.54644 20.998 6.7105 20.8239 6.82593C20.6498 6.94135 20.445 7.00296 20.2356 7.00296C19.9549 7.00265 19.6857 6.89188 19.4872 6.69495C19.2887 6.49802 19.177 6.23101 19.1767 5.95251Z" fill="black"/>
</svg>
