<svg width="124" height="128" viewBox="0 0 124 128" fill="none" xmlns="http://www.w3.org/2000/svg">
<path d="M68.0443 53.652C69.3073 49.0086 67.3857 44.455 63.7521 43.4813C60.1186 42.5076 56.1491 45.4825 54.8861 50.1259C53.623 54.7693 55.5447 59.3229 59.1782 60.2966C62.8117 61.2703 66.7812 58.2954 68.0443 53.652Z" fill="#AAAAAA"/>
<path d="M84.1181 53.7903C87.4004 54.7182 90.9863 51.8833 92.1273 47.4584C93.2683 43.0336 91.5321 38.6941 88.2499 37.7663C84.9672 36.8384 81.3817 39.6733 80.2407 44.0981C79.0997 48.523 80.8358 52.8624 84.1181 53.7903Z" fill="#AAAAAA"/>
<path d="M110.291 36.7982C104.933 25.6457 96.0953 18.2252 85.4053 15.9036L61.4651 11.0253C40.4209 6.45384 18.8997 24.119 12.9707 51.012C7.0414 77.9042 20.7883 103.502 41.8328 108.072L63.6243 114.696C65.9066 115.192 68.2493 115.443 70.5877 115.443C90.3853 115.443 108.61 97.9546 113.922 73.8591C116.797 60.8194 115.508 47.6577 110.291 36.7982ZM110.548 73.1261C105.524 95.9093 88.4069 112.014 70.5877 112.014C68.5165 112.014 66.435 111.797 64.3628 111.347C62.3771 110.915 60.4783 110.279 58.667 109.472C42.3257 102.189 33.4346 80.3665 38.4824 57.4734C43.5055 34.6902 60.6221 18.5851 78.441 18.5851C79.9221 18.5851 81.4092 18.7017 82.8943 18.9297C83.4854 19.0208 84.0768 19.1249 84.6669 19.2532C104.567 23.5752 116.154 47.6955 110.548 73.1261Z" fill="#AAAAAA"/>
<path d="M86.4043 71.553C81.75 70.2383 76.8392 70.9388 72.1976 73.5856C65.5143 77.3956 60.3775 84.6373 58.1043 93.4535C57.889 94.2866 57.7035 95.1345 57.5449 95.989L61.2682 95.0688C61.3275 94.813 61.3856 94.5565 61.451 94.3033C63.4644 86.4951 68.1256 79.8615 73.9182 76.5584C77.7305 74.3839 81.7216 73.7932 85.4584 74.8507C90.444 76.2597 94.3636 80.414 96.4418 86.3779L99.8041 85.5474C97.3838 78.3526 92.5877 73.3003 86.4043 71.553Z" fill="#AAAAAA"/>
</svg>
