<svg width="28" height="28" viewBox="0 0 28 28" fill="none" xmlns="http://www.w3.org/2000/svg">
<path d="M27.26 23.67L20.74 17.15C22.0714 14.9973 22.6386 12.4587 22.3501 9.94408C22.0616 7.42942 20.9343 5.0853 19.15 3.28999C18.1122 2.24343 16.8767 1.41363 15.5153 0.848821C14.1539 0.284016 12.6939 -0.00451963 11.22 -8.95491e-06C8.24508 0.00263895 5.39277 1.18559 3.28919 3.28918C1.1856 5.39276 0.0026479 8.24507 0 11.22C0.00131163 12.6943 0.293156 14.1538 0.858853 15.5153C1.42455 16.8767 2.25301 18.1133 3.29687 19.1543C4.34073 20.1954 5.57953 21.0206 6.94246 21.5826C8.30539 22.1447 9.76573 22.4326 11.24 22.43C13.3326 22.4318 15.3837 21.8463 17.16 20.74L23.67 27.25C23.9018 27.4873 24.1786 27.6758 24.4843 27.8046C24.79 27.9334 25.1183 27.9998 25.45 28C25.9515 27.9996 26.4416 27.8507 26.8586 27.5722C27.2756 27.2937 27.6008 26.898 27.7933 26.435C27.9858 25.9719 28.0369 25.4623 27.9403 24.9702C27.8436 24.4782 27.6034 24.0258 27.25 23.67H27.26ZM4.7 17.74C3.41037 16.4505 2.5321 14.8076 2.17626 13.019C1.82043 11.2304 2.00301 9.37637 2.70093 7.69152C3.39885 6.00667 4.58075 4.56663 6.09715 3.55354C7.61354 2.54044 9.39632 1.9998 11.22 1.99999C12.9254 1.99808 14.5978 2.46969 16.0509 3.36227C17.504 4.25486 18.6807 5.53337 19.45 7.05535C20.2193 8.57734 20.5509 10.283 20.4079 11.9824C20.2649 13.6817 19.6528 15.308 18.64 16.68C18.3617 17.0322 18.0611 17.3662 17.74 17.68C17.433 18.0049 17.0984 18.3027 16.74 18.57C14.9677 19.8999 12.7761 20.5478 10.5656 20.3954C8.35502 20.243 6.27307 19.3005 4.7 17.74ZM25.84 25.84C25.7906 25.8907 25.7315 25.931 25.6662 25.9585C25.6009 25.9859 25.5308 26.0001 25.46 26C25.3908 25.9993 25.3224 25.9848 25.2589 25.9573C25.1953 25.9298 25.1379 25.8899 25.09 25.84L18.77 19.52C18.9 19.4 19.03 19.28 19.15 19.15L19.52 18.77L25.85 25.1C25.8988 25.1462 25.9374 25.2021 25.9632 25.2641C25.9891 25.3261 26.0016 25.3928 26 25.46C26.0025 25.5311 25.9895 25.602 25.9619 25.6676C25.9343 25.7333 25.8927 25.7921 25.84 25.84Z" fill="black"/>
<path d="M18 10.5C17.9974 8.77691 17.3117 7.12514 16.0933 5.90673C14.8749 4.68831 13.2231 4.00264 11.5 4C11.2348 4 10.9804 4.10536 10.7929 4.29289C10.6054 4.48043 10.5 4.73478 10.5 5C10.5 5.26522 10.6054 5.51957 10.7929 5.70711C10.9804 5.89464 11.2348 6 11.5 6C12.6927 6.00264 13.8357 6.4776 14.6791 7.32094C15.5224 8.16428 15.9974 9.30734 16 10.5C16 10.7652 16.1054 11.0196 16.2929 11.2071C16.4804 11.3946 16.7348 11.5 17 11.5C17.2652 11.5 17.5196 11.3946 17.7071 11.2071C17.8946 11.0196 18 10.7652 18 10.5Z" fill="black"/>
</svg>
