<svg width="90" height="90" viewBox="0 0 90 90" fill="none" xmlns="http://www.w3.org/2000/svg">
<path d="M56.0068 56.1749L67.484 69.8553L53.3083 59.0312C50.013 56.5256 45.263 58.6553 44.9147 62.802L42.6517 90L39.0206 63.416C38.4487 59.1941 33.4125 57.3649 30.2913 60.2338L0 88.1208L26.5734 57.1144C29.3713 53.8571 27.3195 48.7708 23.0542 48.4076L0.174088 46.1777L23.6511 42.4694C27.7423 41.9056 29.6075 37.0073 26.9464 33.8251L15.469 20.1448L29.6323 30.9688C32.9276 33.4744 37.6776 31.3448 38.0259 27.198L40.3013 0L43.92 26.584C44.5043 30.8059 49.5405 32.6351 52.6493 29.7661L82.953 1.87918L56.3672 32.8856C53.5693 36.1429 55.6337 41.2292 59.8988 41.5924L82.7791 43.8223L59.2895 47.5306C55.1983 48.0944 53.3457 52.9927 56.0068 56.1749Z" fill="url(#paint0_linear)"/>
<defs>
<linearGradient id="paint0_linear" x1="26.6281" y1="31.9916" x2="48.2155" y2="50.6243" gradientUnits="userSpaceOnUse">
<stop stop-color="#FFC10B"/>
<stop offset="1" stop-color="#FB3F2E"/>
</linearGradient>
</defs>
</svg>
