<svg width="80" height="80" viewBox="0 0 80 80" fill="none" xmlns="http://www.w3.org/2000/svg">
<g clip-path="url(#clip0)">
<path d="M13.4172 56.2992C13.8992 55.8177 14.5526 55.5472 15.2338 55.5472H78.0959C79.2409 55.5472 79.8142 56.9319 79.0041 57.7413L66.5828 70.1528C66.1008 70.6344 65.4474 70.9049 64.766 70.9049H1.90414C0.75899 70.9049 0.185722 69.5202 0.99579 68.7107L13.4172 56.2992Z" fill="#00FFA3"/>
<path d="M13.4172 9.95963C13.8992 9.47806 14.5526 9.20755 15.2338 9.20755H78.0959C79.2409 9.20755 79.8142 10.5923 79.0041 11.4017L66.5828 23.8133C66.1008 24.2948 65.4474 24.5653 64.766 24.5653H1.90414C0.75899 24.5653 0.185722 23.1805 0.99579 22.3712L13.4172 9.95963Z" fill="#00FFA3"/>
<path d="M66.5828 33.0731C66.1008 32.5916 65.4474 32.3211 64.766 32.3211H1.90414C0.75899 32.3211 0.185722 33.7057 0.99579 34.5153L13.4172 46.9267C13.8992 47.4082 14.5526 47.6789 15.2338 47.6789H78.0959C79.2409 47.6789 79.8142 46.2941 79.0041 45.4846L66.5828 33.0731Z" fill="#00FFA3"/>
</g>
<defs>
<clipPath id="clip0">
<rect width="80" height="80" fill="white"/>
</clipPath>
</defs>
</svg>
