<svg width="32" height="32" viewBox="0 0 32 32" fill="none" xmlns="http://www.w3.org/2000/svg">
<path d="M11.0276 22.9438C10.5234 23.0095 10.169 23.4698 10.2348 23.974C10.4577 25.7019 10.5965 28.84 9.00364 30.4328C8.64561 30.7908 8.64561 31.3716 9.00364 31.7297C9.18265 31.9087 9.41646 32 9.65393 32C9.88774 32 10.1252 31.9087 10.3042 31.7297C12.3464 29.6875 12.383 26.2572 12.0578 23.7365C11.9921 23.2324 11.5317 22.878 11.0276 22.9438Z" fill="black"/>
<path d="M20.7783 8.45162C20.8076 8.45162 20.8368 8.45162 20.866 8.44797C21.3702 8.40048 21.7392 7.95114 21.6917 7.447C21.6076 6.56658 21.5821 5.54735 21.7099 4.5683L25.7688 8.62698C25.9478 8.80598 26.1816 8.89731 26.4191 8.89731C26.6529 8.89731 26.8904 8.80598 27.0694 8.62698C27.4274 8.26896 27.4274 7.68811 27.0694 7.32644L22.2981 2.54809C22.4808 2.18643 22.7073 1.85399 22.9923 1.56904C23.3503 1.21103 23.3503 0.630173 22.9923 0.268508C22.6342 -0.0895028 22.0533 -0.0895028 21.6953 0.268508C20.1865 1.77727 19.5545 4.31988 19.8687 7.61504C19.9125 8.09361 20.3107 8.45162 20.7783 8.45162Z" fill="black"/>
<path d="M31.731 9.01057C31.373 8.65256 30.7921 8.65256 30.4341 9.01057C29.1518 10.2928 26.8758 10.4499 25.1916 10.3549C24.1138 10.2928 23.1347 10.1248 22.4698 9.98232L21.6369 9.74121C21.341 9.65353 14.3046 7.66255 10.9947 10.9723C9.02922 12.9377 8.93058 16.211 9.19728 18.6075C9.24842 19.0787 9.64664 19.4258 10.1106 19.4258C10.1435 19.4258 10.18 19.4221 10.2129 19.4185C10.7171 19.3637 11.0787 18.907 11.0239 18.4029C10.9253 17.5225 10.8815 16.5105 10.9838 15.5278L14.8015 19.3454C14.9805 19.5244 15.2143 19.6157 15.4518 19.6157C15.6856 19.6157 15.9231 19.5244 16.1021 19.3454C16.4601 18.9874 16.4601 18.4065 16.1021 18.0449L11.5025 13.4492C11.6998 13.0071 11.9592 12.6016 12.2916 12.2692C12.6862 11.8747 13.1758 11.5861 13.7128 11.3778L18.2356 15.9005C18.4146 16.0795 18.6484 16.1708 18.8859 16.1708C19.1197 16.1708 19.3572 16.0795 19.5362 15.9005C19.8942 15.5425 19.8942 14.9616 19.5362 14.5999L15.8683 10.9321C16.4491 10.8883 17.0191 10.8956 17.5378 10.9248C18.6156 10.9869 19.5947 11.155 20.2596 11.2975L21.0925 11.5386C21.3921 11.6262 28.4248 13.6172 31.7347 10.3075C32.0891 9.94944 32.0891 9.36859 31.731 9.01057Z" fill="black"/>
<path d="M21.8816 13.018C21.3775 13.0618 21.0012 13.5039 21.045 14.0117C21.2021 15.8529 21.1035 18.337 19.7335 19.707C18.4512 20.9892 16.1751 21.1463 14.4909 21.0513C13.0698 20.971 11.8131 20.7006 11.2395 20.5582L10.9107 20.4632C10.6148 20.3755 3.57844 18.3845 0.26852 21.6943C-0.0895067 22.0523 -0.0895067 22.6332 0.26852 22.9912C0.447533 23.1702 0.681347 23.2615 0.918813 23.2615C1.15263 23.2615 1.39009 23.1702 1.56911 22.9912C1.83945 22.7208 2.15364 22.5053 2.49705 22.3263L7.45097 27.2837C7.62999 27.4627 7.8638 27.554 8.10127 27.554C8.33508 27.554 8.57255 27.4627 8.75156 27.2837C9.10959 26.9256 9.10959 26.3448 8.75156 25.9868L4.49543 21.7308C5.29185 21.6176 6.10289 21.6103 6.81164 21.6505C8.23279 21.7308 9.48953 22.0012 10.0631 22.1436L10.3919 22.2386C10.6878 22.3263 17.7241 24.3173 21.0341 21.0075C22.5137 19.528 23.1493 17.0548 22.879 13.8582C22.8315 13.3504 22.3895 12.9742 21.8816 13.018Z" fill="black"/>
</svg>
