<svg width="49" height="25" viewBox="0 0 49 25" fill="none" xmlns="http://www.w3.org/2000/svg">
<path d="M46.2402 17.8777H38.6057C37.5142 17.8777 36.627 16.9079 36.627 15.7148V11.2172C36.627 10.0232 37.5142 9.05154 38.6057 9.05154H46.2402C47.3325 9.05154 48.2214 10.0222 48.2214 11.2172V15.7148C48.2214 16.9075 47.333 17.8777 46.2402 17.8777ZM38.6057 11.1154C38.5541 11.1154 38.5147 11.1603 38.5147 11.2181V15.7162C38.5147 15.7708 38.5554 15.8157 38.6057 15.8157H46.2402C46.2901 15.8157 46.3337 15.7694 46.3337 15.7162V11.2181C46.3337 11.1603 46.2926 11.1154 46.2402 11.1154H38.6057Z" fill="white"/>
<path d="M40.7591 14.4438C40.5208 14.4438 40.2804 14.3338 40.0917 14.1403C39.9159 13.9481 39.8274 13.6863 39.8274 13.4121C39.8274 13.1361 39.9159 12.8747 40.0917 12.6822C40.4445 12.297 41.0859 12.297 41.4265 12.6822C41.6023 12.8747 41.703 13.1361 41.703 13.4121C41.703 13.6726 41.6023 13.9481 41.4387 14.1403C41.2495 14.3338 41.0116 14.4438 40.7591 14.4438Z" fill="white"/>
<path d="M43.6816 25H22.3979C20.652 25 19.0008 25 19.0008 21.8779C19.1015 18.4619 19.1519 17.8988 19.2517 16.78C19.3197 16.0262 19.4107 15.0014 19.5588 12.6446C19.5785 12.1636 19.3104 7.96437 19.1661 5.70751C19.0776 4.3223 19.0088 3.22504 19 2.9912C19 2.29928 19.2223 1.70962 19.6439 1.25155C20.7992 -0.00985815 23.2197 -0.0181115 24.969 0.00481477H38.9933C40.2782 0.0222388 42.6865 1.02687 42.6865 4.70379C42.6865 5.27328 42.2637 5.73548 41.7427 5.73548C41.2216 5.73548 40.7988 5.27328 40.7988 4.70379C40.7988 2.26581 39.276 2.0801 38.9719 2.06818H24.9648C23.8771 2.04938 21.5778 2.0581 20.9767 2.7115C20.9108 2.78394 20.8882 2.84584 20.8882 2.95406C20.8945 3.14664 20.9632 4.21409 21.0492 5.56261C21.3379 10.0951 21.4713 12.3318 21.4419 12.7858C21.2921 15.1756 21.1986 16.2146 21.131 16.9785C21.0316 18.0882 20.9872 18.593 20.889 21.9105C20.889 22.6455 20.9855 22.816 20.9972 22.8321C21.1457 22.9357 21.9306 22.9357 22.3984 22.9357H43.682C44.6355 22.9357 44.6355 22.9357 44.6355 21.13V16.8447C44.6355 16.2752 45.0584 15.813 45.5794 15.813C46.1004 15.813 46.5233 16.2752 46.5233 16.8447V21.13C46.5228 23.0334 46.5228 25 43.6816 25Z" fill="white"/>
<path d="M45.5791 11.1154C45.0581 11.1154 44.6352 10.6532 44.6352 10.0837V7.33436C44.6352 6.78779 44.5173 6.39759 44.274 6.14219C43.8856 5.73502 43.2576 5.75244 43.2589 5.73777L22.1669 5.73914C22.0532 5.76528 20.5582 5.72172 19.6688 4.75515C19.2321 4.28103 19.001 3.65973 19.001 2.95864C19.001 2.38961 19.4238 1.92696 19.9448 1.92696C20.4659 1.92696 20.8887 2.38961 20.8887 2.95864C20.8887 3.14572 20.9416 3.23055 20.9995 3.29245C21.2709 3.58682 21.9358 3.67669 22.1564 3.67669C22.159 3.67669 22.1602 3.67669 22.1615 3.67669H43.2228C43.3365 3.68082 44.6264 3.64918 45.5837 4.6561C46.012 5.10729 46.5234 5.93769 46.5234 7.33482V10.0851C46.523 10.6532 46.1001 11.1154 45.5791 11.1154Z" fill="white"/>
<circle cx="4.5" cy="13.5" r="4.5" fill="#4AD933"/>
</svg>
