
<svg width="85" height="85" viewBox="0 0 85 85" fill="none" xmlns="http://www.w3.org/2000/svg">
<circle cx="42.5" cy="42.5" r="42.5" fill="#FF7A00"/>
<path d="M19.288 51V48.582H24.384V34.984H24.176L19.964 39.482L18.17 37.87L22.798 32.852H27.296V48.582H31.69V51H19.288ZM45.8758 35.374H37.6338L37.1658 41.822H37.3738C37.7898 41.1113 38.2925 40.548 38.8818 40.132C39.4712 39.6987 40.2772 39.482 41.2998 39.482C42.0798 39.482 42.7992 39.612 43.4578 39.872C44.1338 40.132 44.7145 40.5047 45.1998 40.99C45.7025 41.4753 46.0925 42.0733 46.3698 42.784C46.6645 43.4773 46.8118 44.266 46.8118 45.15C46.8118 46.0513 46.6645 46.8833 46.3698 47.646C46.0752 48.3913 45.6505 49.0413 45.0958 49.596C44.5412 50.1333 43.8565 50.558 43.0418 50.87C42.2272 51.1647 41.2998 51.312 40.2598 51.312C39.4452 51.312 38.7172 51.2167 38.0758 51.026C37.4518 50.8527 36.8885 50.6187 36.3858 50.324C35.9005 50.012 35.4758 49.6653 35.1118 49.284C34.7478 48.8853 34.4272 48.478 34.1498 48.062L36.2818 46.398C36.5072 46.7447 36.7412 47.074 36.9838 47.386C37.2438 47.6807 37.5298 47.9407 37.8418 48.166C38.1538 48.3913 38.5092 48.5647 38.9078 48.686C39.3238 48.8073 39.7918 48.868 40.3118 48.868C41.4385 48.868 42.2965 48.5647 42.8858 47.958C43.4752 47.334 43.7698 46.4933 43.7698 45.436V45.228C43.7698 44.1707 43.4665 43.3473 42.8598 42.758C42.2705 42.1687 41.4212 41.874 40.3118 41.874C39.4972 41.874 38.8558 42.0213 38.3878 42.316C37.9198 42.6107 37.5125 42.94 37.1658 43.304L34.7478 42.966L35.4238 32.852H45.8758V35.374ZM52.5217 41.952C51.3257 41.952 50.3637 41.5533 49.6357 40.756C48.925 39.9413 48.5697 38.7713 48.5697 37.246C48.5697 35.7207 48.925 34.5593 49.6357 33.762C50.3637 32.9473 51.3257 32.54 52.5217 32.54C53.7177 32.54 54.671 32.9473 55.3817 33.762C56.1097 34.5593 56.4737 35.7207 56.4737 37.246C56.4737 38.7713 56.1097 39.9413 55.3817 40.756C54.671 41.5533 53.7177 41.952 52.5217 41.952ZM52.5217 40.184C53.0937 40.184 53.5357 39.9847 53.8477 39.586C54.1597 39.17 54.3157 38.598 54.3157 37.87V36.622C54.3157 35.894 54.1597 35.3307 53.8477 34.932C53.5357 34.516 53.0937 34.308 52.5217 34.308C51.9497 34.308 51.5077 34.516 51.1957 34.932C50.8837 35.3307 50.7277 35.894 50.7277 36.622V37.87C50.7277 38.598 50.8837 39.17 51.1957 39.586C51.5077 39.9847 51.9497 40.184 52.5217 40.184ZM61.1537 32.852H63.4937L59.4117 40.652H57.0977L61.1537 32.852ZM52.5477 43.2H54.8617L50.8057 51H48.4657L52.5477 43.2ZM59.4377 51.312C58.2417 51.312 57.2797 50.9133 56.5517 50.116C55.841 49.3013 55.4857 48.1313 55.4857 46.606C55.4857 45.0807 55.841 43.9193 56.5517 43.122C57.2797 42.3073 58.2417 41.9 59.4377 41.9C60.6337 41.9 61.587 42.3073 62.2977 43.122C63.0257 43.9193 63.3897 45.0807 63.3897 46.606C63.3897 48.1313 63.0257 49.3013 62.2977 50.116C61.587 50.9133 60.6337 51.312 59.4377 51.312ZM59.4377 49.544C60.0097 49.544 60.4517 49.3447 60.7637 48.946C61.0757 48.53 61.2317 47.958 61.2317 47.23V45.982C61.2317 45.254 61.0757 44.6907 60.7637 44.292C60.4517 43.876 60.0097 43.668 59.4377 43.668C58.8657 43.668 58.4237 43.876 58.1117 44.292C57.7997 44.6907 57.6437 45.254 57.6437 45.982V47.23C57.6437 47.958 57.7997 48.53 58.1117 48.946C58.4237 49.3447 58.8657 49.544 59.4377 49.544Z" fill="white"/>
</svg>
