<svg width="316" height="232" viewBox="0 0 316 232" fill="none" xmlns="http://www.w3.org/2000/svg">
<rect width="316" height="232" fill="white"/>
<rect x="0.5" y="0.5" width="315" height="231" stroke="#171D27" stroke-opacity="0.15"/>
<path fill-rule="evenodd" clip-rule="evenodd" d="M147 112.822C147 110.084 147 108.715 147.533 107.669C148.002 106.749 148.749 106.002 149.669 105.533C150.715 105 152.084 105 154.822 105H161.178C163.916 105 165.285 105 166.331 105.533C167.251 106.002 167.998 106.749 168.467 107.669C169 108.715 169 110.084 169 112.822V117.125C169 117.712 169 118.005 168.877 118.168C168.771 118.311 168.607 118.399 168.43 118.411C168.226 118.425 167.98 118.264 167.488 117.944L164.011 115.678L163.894 115.601C163.41 115.284 162.925 114.967 162.375 114.845C161.897 114.739 161.4 114.749 160.926 114.876C160.382 115.021 159.911 115.359 159.441 115.696L159.327 115.777L156.265 117.964C155.679 118.382 155.607 118.416 155.557 118.431C155.473 118.457 155.385 118.464 155.298 118.453C155.246 118.446 155.169 118.425 154.522 118.11L153.876 117.796L153.775 117.746C153.348 117.538 152.92 117.328 152.454 117.257C152.047 117.195 151.632 117.216 151.233 117.319C150.777 117.436 150.371 117.688 149.968 117.938L149.872 117.998L147.507 119.46C147.286 119.597 147 119.438 147 119.178V112.822ZM147.605 122.273C147.416 122.39 147.321 122.449 147.254 122.537C147.198 122.609 147.152 122.712 147.136 122.802C147.116 122.911 147.134 123.007 147.169 123.2C147.248 123.632 147.363 123.998 147.533 124.331C148.002 125.251 148.749 125.998 149.669 126.467C150.715 127 152.084 127 154.822 127H161.178C163.916 127 165.285 127 166.331 126.467C167.251 125.998 167.998 125.251 168.467 124.331C168.734 123.807 168.867 123.201 168.934 122.383C168.949 122.192 168.957 122.096 168.933 122C168.913 121.918 168.871 121.832 168.819 121.766C168.757 121.688 168.671 121.632 168.5 121.521L162.676 117.726C161.989 117.278 161.902 117.244 161.846 117.231C161.75 117.21 161.651 117.212 161.556 117.237C161.501 117.252 161.416 117.29 160.748 117.767L157.685 119.953L157.586 120.024C157.172 120.321 156.756 120.62 156.275 120.767C155.856 120.896 155.413 120.933 154.978 120.876C154.48 120.81 154.02 120.585 153.562 120.361L153.452 120.308L152.806 119.994C152.206 119.701 152.135 119.681 152.086 119.674C152.005 119.661 151.922 119.666 151.842 119.686C151.795 119.698 151.726 119.725 151.158 120.077L147.605 122.273ZM156.778 112.333C156.778 113.683 155.683 114.778 154.333 114.778C152.983 114.778 151.889 113.683 151.889 112.333C151.889 110.983 152.983 109.889 154.333 109.889C155.683 109.889 156.778 110.983 156.778 112.333Z" fill="#171D27" fill-opacity="0.25"/>
</svg>
