
<svg width="85" height="85" viewBox="0 0 85 85" fill="none" xmlns="http://www.w3.org/2000/svg">
<circle cx="42.5" cy="42.5" r="42.5" fill="#FF7A00"/>
<path d="M37.44 31.96H24.76L24.04 41.88H24.36C25 40.7867 25.7733 39.92 26.68 39.28C27.5867 38.6133 28.8267 38.28 30.4 38.28C31.6 38.28 32.7067 38.48 33.72 38.88C34.76 39.28 35.6533 39.8533 36.4 40.6C37.1733 41.3467 37.7733 42.2667 38.2 43.36C38.6533 44.4267 38.88 45.64 38.88 47C38.88 48.3867 38.6533 49.6667 38.2 50.84C37.7467 51.9867 37.0933 52.9867 36.24 53.84C35.3867 54.6667 34.3333 55.32 33.08 55.8C31.8267 56.2533 30.4 56.48 28.8 56.48C27.5467 56.48 26.4267 56.3333 25.44 56.04C24.48 55.7733 23.6133 55.4133 22.84 54.96C22.0933 54.48 21.44 53.9467 20.88 53.36C20.32 52.7467 19.8267 52.12 19.4 51.48L22.68 48.92C23.0267 49.4533 23.3867 49.96 23.76 50.44C24.16 50.8933 24.6 51.2933 25.08 51.64C25.56 51.9867 26.1067 52.2533 26.72 52.44C27.36 52.6267 28.08 52.72 28.88 52.72C30.6133 52.72 31.9333 52.2533 32.84 51.32C33.7467 50.36 34.2 49.0667 34.2 47.44V47.12C34.2 45.4933 33.7333 44.2267 32.8 43.32C31.8933 42.4133 30.5867 41.96 28.88 41.96C27.6267 41.96 26.64 42.1867 25.92 42.64C25.2 43.0933 24.5733 43.6 24.04 44.16L20.32 43.64L21.36 28.08H37.44V31.96ZM47.6644 42.08C45.8244 42.08 44.3444 41.4667 43.2244 40.24C42.131 38.9867 41.5844 37.1867 41.5844 34.84C41.5844 32.4933 42.131 30.7067 43.2244 29.48C44.3444 28.2267 45.8244 27.6 47.6644 27.6C49.5044 27.6 50.971 28.2267 52.0644 29.48C53.1844 30.7067 53.7444 32.4933 53.7444 34.84C53.7444 37.1867 53.1844 38.9867 52.0644 40.24C50.971 41.4667 49.5044 42.08 47.6644 42.08ZM47.6644 39.36C48.5444 39.36 49.2244 39.0533 49.7044 38.44C50.1844 37.8 50.4244 36.92 50.4244 35.8V33.88C50.4244 32.76 50.1844 31.8933 49.7044 31.28C49.2244 30.64 48.5444 30.32 47.6644 30.32C46.7844 30.32 46.1044 30.64 45.6244 31.28C45.1444 31.8933 44.9044 32.76 44.9044 33.88V35.8C44.9044 36.92 45.1444 37.8 45.6244 38.44C46.1044 39.0533 46.7844 39.36 47.6644 39.36ZM60.9444 28.08H64.5444L58.2644 40.08H54.7044L60.9444 28.08ZM47.7044 44H51.2644L45.0244 56H41.4244L47.7044 44ZM58.3044 56.48C56.4644 56.48 54.9844 55.8667 53.8644 54.64C52.771 53.3867 52.2244 51.5867 52.2244 49.24C52.2244 46.8933 52.771 45.1067 53.8644 43.88C54.9844 42.6267 56.4644 42 58.3044 42C60.1444 42 61.611 42.6267 62.7044 43.88C63.8244 45.1067 64.3844 46.8933 64.3844 49.24C64.3844 51.5867 63.8244 53.3867 62.7044 54.64C61.611 55.8667 60.1444 56.48 58.3044 56.48ZM58.3044 53.76C59.1844 53.76 59.8644 53.4533 60.3444 52.84C60.8244 52.2 61.0644 51.32 61.0644 50.2V48.28C61.0644 47.16 60.8244 46.2933 60.3444 45.68C59.8644 45.04 59.1844 44.72 58.3044 44.72C57.4244 44.72 56.7444 45.04 56.2644 45.68C55.7844 46.2933 55.5444 47.16 55.5444 48.28V50.2C55.5444 51.32 55.7844 52.2 56.2644 52.84C56.7444 53.4533 57.4244 53.76 58.3044 53.76Z" fill="white"/>
</svg>
