
<svg width="85" height="85" viewBox="0 0 85 85" fill="none" xmlns="http://www.w3.org/2000/svg">
<circle cx="42.5" cy="42.5" r="42.5" fill="#FF7A00"/>
<path fill-rule="evenodd" clip-rule="evenodd" d="M56.0625 53.6329C57.9167 29.6749 44.9377 25.9582 37.8336 17C43.7835 29.4165 35.4003 34.0956 29.4045 41.3622C24.4712 47.3413 23.1337 56.0371 28.242 62.3162C29.4378 63.787 30.9837 65.0661 32.9045 66.1619C34.6169 67.1411 36.4044 67.8244 38.2586 68.1994C26.5629 58.5745 43.2835 55.2579 40.0419 47.3788C45.521 51.8663 52.7626 61.2995 46.3918 67.8828C57.4459 65.1953 60.9542 57.2537 59.375 47.8413C58.7 50.7413 57.875 52.8913 56.0625 53.6329Z" fill="white"/>
</svg>
