
<svg width="85" height="85" viewBox="0 0 85 85" fill="none" xmlns="http://www.w3.org/2000/svg">
<circle cx="42.5" cy="42.5" r="42.5" fill="#FF7A00"/>
<path d="M52.8619 62.9999V34.0346C52.8619 34.0346 53.0429 28.9056 55.0343 28.2416C55.0343 28.2416 55.3363 26.6724 48.5172 24.6209L46.3447 22.4485H46.3469L42.0021 31.8622L37.6574 22.4486L35.485 24.621C28.6658 26.6724 28.9678 28.2416 28.9678 28.2416C30.9592 28.9057 31.1402 34.0347 31.1402 34.0347V62.9999H52.8619Z" fill="white"/>
<path d="M31.14 34.0348C31.14 34.0348 30.9597 28.9803 29.006 28.2606L28.9655 28.2417L21 38.3796L26.0689 42.0003L31.14 39.3441V34.0348Z" fill="white"/>
<path d="M52.8599 34.0348C52.8599 34.0348 53.0402 28.9803 54.994 28.2606L55.0345 28.2417L62.9999 38.3795L57.931 42.0002L52.8599 39.344V34.0348H52.8599Z" fill="white"/>
<path d="M37.8841 21.9932L37.6567 22.4487L42.0016 31.8625L46.3449 22.4487L46.116 21.9918C45.8126 21.3843 45.1913 21.0005 44.5121 21.0005H39.4888C38.8089 21.0005 38.1876 21.385 37.8841 21.9932Z" fill="white"/>
<path d="M40.644 28.9196L37.6556 30.4142L35.4846 24.6211L37.657 22.4487L40.644 28.9196Z" fill="white"/>
<path d="M43.3584 28.9196L46.3469 30.4142L48.5178 24.6211L46.3455 22.4487L43.3584 28.9196Z" fill="white"/>
</svg>
