<svg width="200" height="200" viewBox="0 0 200 200" fill="none" xmlns="http://www.w3.org/2000/svg">
<rect width="200" height="200" fill="white"/>
<rect x="0.5" y="0.5" width="199" height="199" stroke="#1F252F" stroke-opacity="0.15"/>
<path fill-rule="evenodd" clip-rule="evenodd" d="M89 96.8222C89 94.0842 89 92.7152 89.5329 91.6694C90.0016 90.7495 90.7495 90.0016 91.6694 89.5329C92.7152 89 94.0842 89 96.8222 89H103.178C105.916 89 107.285 89 108.331 89.5329C109.251 90.0016 109.998 90.7495 110.467 91.6694C111 92.7152 111 94.0842 111 96.8222V101.125C111 101.712 111 102.005 110.877 102.168C110.771 102.311 110.607 102.399 110.43 102.411C110.226 102.425 109.98 102.264 109.488 101.944L106.011 99.6777L105.894 99.6011C105.41 99.2845 104.925 98.9667 104.375 98.8448C103.897 98.7387 103.4 98.7492 102.926 98.8756C102.382 99.0208 101.911 99.3589 101.441 99.6958L101.327 99.7773L98.265 101.964C97.6793 102.382 97.6067 102.416 97.557 102.431C97.4731 102.457 97.3847 102.464 97.2977 102.453C97.2461 102.446 97.1689 102.425 96.5219 102.11L95.8761 101.796L95.7745 101.746C95.3484 101.538 94.9198 101.328 94.4538 101.257C94.0469 101.195 93.6317 101.216 93.2332 101.319C92.7766 101.436 92.3713 101.688 91.9684 101.938L91.8722 101.998L89.507 103.46C89.2856 103.597 89 103.438 89 103.178V96.8222ZM89.6053 106.273C89.416 106.39 89.3214 106.449 89.2535 106.537C89.1977 106.609 89.152 106.712 89.1358 106.802C89.1161 106.911 89.1337 107.007 89.1689 107.2C89.2477 107.632 89.3633 107.998 89.5329 108.331C90.0016 109.251 90.7495 109.998 91.6694 110.467C92.7152 111 94.0842 111 96.8222 111H103.178C105.916 111 107.285 111 108.331 110.467C109.251 109.998 109.998 109.251 110.467 108.331C110.734 107.807 110.867 107.201 110.934 106.383C110.949 106.192 110.957 106.096 110.933 106C110.913 105.918 110.871 105.832 110.819 105.766C110.757 105.688 110.671 105.632 110.5 105.521L104.676 101.726C103.989 101.278 103.902 101.244 103.846 101.231C103.75 101.21 103.651 101.212 103.556 101.237C103.501 101.252 103.416 101.29 102.748 101.767L99.6854 103.953L99.5861 104.024C99.1721 104.321 98.756 104.62 98.2751 104.767C97.8557 104.896 97.4134 104.933 96.9783 104.876C96.4795 104.81 96.0196 104.585 95.562 104.361L95.4522 104.308L94.8065 103.994C94.2056 103.701 94.1347 103.681 94.0863 103.674C94.0049 103.661 93.9219 103.666 93.8422 103.686C93.7947 103.698 93.7262 103.725 93.1578 104.077L89.6053 106.273ZM98.7778 96.3333C98.7778 97.6834 97.6834 98.7778 96.3333 98.7778C94.9833 98.7778 93.8889 97.6834 93.8889 96.3333C93.8889 94.9833 94.9833 93.8889 96.3333 93.8889C97.6834 93.8889 98.7778 94.9833 98.7778 96.3333Z" fill="#1F252F"/>
</svg>
