
<svg width="17" height="16" viewBox="0 0 17 16" fill="none" xmlns="http://www.w3.org/2000/svg">
<path d="M16.532 0.489778C16.247 0.248098 15.7994 0.213518 15.3365 0.399338H15.3358C14.849 0.594658 1.5566 6.29618 1.01548 6.52912C0.917056 6.56332 0.0574958 6.88404 0.146036 7.59844C0.225076 8.24254 0.915916 8.5093 1.00028 8.54008L4.37962 9.69718C4.60382 10.4435 5.43032 13.197 5.6131 13.7852C5.7271 14.1519 5.91292 14.6338 6.23858 14.7329C6.52434 14.8431 6.80858 14.7424 6.9925 14.598L9.05856 12.6817L12.3938 15.2828L12.4732 15.3303C12.6997 15.4306 12.9167 15.4808 13.1238 15.4808C13.2838 15.4808 13.4373 15.4508 13.584 15.3907C14.0837 15.1855 14.2836 14.7094 14.3045 14.6554L16.7957 1.70616C16.9477 1.01456 16.7365 0.662678 16.532 0.489778ZM7.35996 10.16L6.21996 13.2L5.07996 9.40002L13.82 2.94002L7.35996 10.16Z" fill="white"/>
</svg>
