<svg width="85" height="85" viewBox="0 0 85 85" fill="none" xmlns="http://www.w3.org/2000/svg">
<circle cx="42.5" cy="42.5" r="42.5" fill="#FF7A00"/>
<path d="M29.5579 46.6644H46.6675L43.5567 49.7755H31.1133L29.5579 46.6644Z" fill="white"/>
<path fill-rule="evenodd" clip-rule="evenodd" d="M41.2813 29.7444C38.9558 27.4186 35.1854 27.4185 32.8598 29.7442C30.5344 32.0698 30.5343 35.8403 32.8596 38.166L33.5801 38.8866L29.3667 43.1002C27.5444 44.9226 27.5444 47.8773 29.3667 49.6997L34.2998 54.6332C36.1221 56.4556 39.0766 56.4556 40.8989 54.6332L48.2294 47.3022H51.3272C54.0986 47.3022 55.4866 43.9511 53.5268 41.9913L41.2813 29.7444ZM35.0595 31.9441C36.1702 30.8333 37.9709 30.8334 39.0815 31.9441L39.8016 32.6643L35.7796 36.6866L35.0594 35.9662C33.9488 34.8555 33.9489 33.0547 35.0595 31.9441ZM31.5664 45.3001L42.0012 34.8645L51.3272 44.1911H48.2294C47.4044 44.1911 46.6131 44.5189 46.0297 45.1023L38.6992 52.4334C38.0918 53.0408 37.1069 53.0408 36.4995 52.4333L31.5664 47.4999C30.959 46.8924 30.959 45.9075 31.5664 45.3001Z" fill="white"/>
<path d="M56 53.5087C56 54.8833 54.9554 55.9976 53.6669 55.9976C52.3783 55.9976 51.3337 54.8833 51.3337 53.5087C51.3337 52.1996 52.4813 50.7529 53.1668 50.0055C53.4402 49.7075 53.8936 49.7075 54.1669 50.0055C54.8524 50.7529 56 52.1996 56 53.5087Z" fill="white"/>
</svg>
