<svg width="19" height="19" viewBox="0 0 19 19" fill="none" xmlns="http://www.w3.org/2000/svg">
<path fill-rule="evenodd" clip-rule="evenodd" d="M6.7175 16C12.3778 16 15.4738 10.998 15.4738 6.66069C15.4738 6.5183 15.4738 6.37671 15.4648 6.23592C16.067 5.77195 16.5868 5.196 17 4.53684C16.439 4.80242 15.8427 4.97681 15.233 5.05361C15.875 4.64324 16.3558 3.99848 16.586 3.23774C15.9815 3.62011 15.3208 3.88969 14.6315 4.03448C13.466 2.71298 11.5168 2.64898 10.277 3.89209C9.47825 4.69363 9.1385 5.88874 9.38675 7.02866C6.9125 6.89587 4.607 5.64956 3.044 3.59931C2.22725 5.0992 2.645 7.01746 3.99725 7.98059C3.5075 7.96539 3.02825 7.8246 2.6 7.57022V7.61182C2.60075 9.1741 3.6335 10.5196 5.069 10.8292C4.616 10.9612 4.1405 10.9804 3.68 10.8852C4.08275 12.2227 5.2385 13.1386 6.55475 13.165C5.465 14.0785 4.11875 14.5745 2.73275 14.5729C2.48825 14.5721 2.24375 14.5569 2 14.5257C3.40775 15.4888 5.045 16 6.7175 15.9976" fill="white"/>
</svg>
