
<svg width="19" height="19" viewBox="0 0 19 19" fill="none" xmlns="http://www.w3.org/2000/svg">
<path d="M15.1999 2.53333H3.79987C3.10004 2.53333 2.5332 3.10016 2.5332 3.79999V15.2C2.5332 15.8998 3.10004 16.4667 3.79987 16.4667H15.1999C15.8997 16.4667 16.4665 15.8998 16.4665 15.2V3.79999C16.4665 3.10016 15.8997 2.53333 15.1999 2.53333ZM14.2765 13.3H10.5202V13.0891L11.3999 12.3152V7.89766L9.23957 13.3H8.902L6.49154 7.85523V11.7103L7.59354 13.0891V13.3H4.72327V13.0891L5.86264 11.7103V7.12373L4.84994 5.85769C4.84994 5.85769 4.84994 5.67466 4.84994 5.70316H7.6214L9.7741 10.3601L11.631 5.70316H14.2619V5.85769L13.2999 6.66646V12.3152L14.2765 13.0891V13.3Z" fill="white"/>
</svg>
