<svg width="17" height="17" viewBox="0 0 17 17" fill="none" xmlns="http://www.w3.org/2000/svg">
<path fill-rule="evenodd" clip-rule="evenodd" d="M8.075 2.55H8.925C9.15972 2.55 9.35 2.35972 9.35 2.125V0.425C9.35 0.190279 9.15972 0 8.925 0H8.075C7.84028 0 7.65 0.190279 7.65 0.425V2.125C7.65 2.35972 7.84028 2.55 8.075 2.55ZM12.75 8.5C12.75 10.8472 10.8472 12.75 8.5 12.75C6.15279 12.75 4.25 10.8472 4.25 8.5C4.25 6.15279 6.15279 4.25 8.5 4.25C10.8472 4.25 12.75 6.15279 12.75 8.5ZM7.65 14.875C7.65 14.6403 7.84028 14.45 8.075 14.45H8.925C9.15972 14.45 9.35 14.6403 9.35 14.875V16.575C9.35 16.8097 9.15972 17 8.925 17H8.075C7.84028 17 7.65 16.8097 7.65 16.575V14.875ZM16.575 7.65H14.875C14.6403 7.65 14.45 7.84028 14.45 8.075V8.925C14.45 9.15972 14.6403 9.35 14.875 9.35H16.575C16.8097 9.35 17 9.15972 17 8.925V8.075C17 7.84028 16.8097 7.65 16.575 7.65ZM2.55 8.075V8.925C2.55 9.15972 2.35972 9.35 2.125 9.35H0.425C0.190279 9.35 0 9.15972 0 8.925V8.075C0 7.84028 0.190279 7.65 0.425 7.65H2.125C2.35972 7.65 2.55 7.84028 2.55 8.075ZM13.005 4.59C13.0848 4.67046 13.1934 4.71571 13.3068 4.71571C13.4201 4.71571 13.5287 4.67046 13.6085 4.59L14.807 3.4C14.8875 3.3202 14.9327 3.21157 14.9327 3.09825C14.9327 2.98493 14.8875 2.8763 14.807 2.7965L14.212 2.2015C14.1322 2.12104 14.0236 2.07579 13.9103 2.07579C13.7969 2.07579 13.6883 2.12104 13.6085 2.2015L12.41 3.4C12.3295 3.4798 12.2843 3.58843 12.2843 3.70175C12.2843 3.81507 12.3295 3.9237 12.41 4.0035L13.005 4.59ZM3.69325 12.2843C3.80657 12.2843 3.9152 12.3295 3.995 12.41L4.59 12.9965C4.67046 13.0763 4.71571 13.1849 4.71571 13.2983C4.71571 13.4116 4.67046 13.5202 4.59 13.6L3.3915 14.7985C3.3117 14.879 3.20307 14.9242 3.08975 14.9242C2.97643 14.9242 2.8678 14.879 2.788 14.7985L2.193 14.2035C2.11254 14.1237 2.06729 14.0151 2.06729 13.9017C2.06729 13.7884 2.11254 13.6798 2.193 13.6L3.3915 12.41C3.4713 12.3295 3.57993 12.2843 3.69325 12.2843ZM13.6 12.41C13.5202 12.3295 13.4116 12.2843 13.2983 12.2843C13.1849 12.2843 13.0763 12.3295 12.9965 12.41L12.4015 13.005C12.321 13.0848 12.2758 13.1934 12.2758 13.3068C12.2758 13.4201 12.321 13.5287 12.4015 13.6085L13.6 14.807C13.6798 14.8875 13.7884 14.9327 13.9017 14.9327C14.0151 14.9327 14.1237 14.8875 14.2035 14.807L14.7985 14.212C14.879 14.1322 14.9242 14.0236 14.9242 13.9103C14.9242 13.7969 14.879 13.6883 14.7985 13.6085L13.6 12.41ZM3.70175 4.71571C3.58843 4.71571 3.4798 4.67046 3.4 4.59L2.2015 3.3915C2.12104 3.3117 2.07579 3.20307 2.07579 3.08975C2.07579 2.97643 2.12104 2.8678 2.2015 2.788L2.7965 2.193C2.8763 2.11254 2.98493 2.06729 3.09825 2.06729C3.21157 2.06729 3.3202 2.11254 3.4 2.193L4.59 3.4C4.75437 3.56293 4.75815 3.82744 4.5985 3.995L4.0035 4.59C3.9237 4.67046 3.81507 4.71571 3.70175 4.71571Z" fill="white"/>
</svg>
