<svg width="250" height="200" viewBox="0 0 250 200" fill="none" xmlns="http://www.w3.org/2000/svg">
<rect x="0.5" y="0.5" width="249" height="199" stroke="white" stroke-opacity="0.15"/>
<path fill-rule="evenodd" clip-rule="evenodd" d="M114 96.8222C114 94.0842 114 92.7152 114.533 91.6694C115.002 90.7495 115.749 90.0016 116.669 89.5329C117.715 89 119.084 89 121.822 89H128.178C130.916 89 132.285 89 133.331 89.5329C134.251 90.0016 134.998 90.7495 135.467 91.6694C136 92.7152 136 94.0842 136 96.8222V101.125C136 101.712 136 102.005 135.877 102.168C135.771 102.311 135.607 102.399 135.43 102.411C135.226 102.425 134.98 102.264 134.488 101.944L131.011 99.6777L130.894 99.6011C130.41 99.2845 129.925 98.9667 129.375 98.8448C128.897 98.7387 128.4 98.7492 127.926 98.8756C127.382 99.0208 126.911 99.3589 126.441 99.6958L126.327 99.7773L123.265 101.964C122.679 102.382 122.607 102.416 122.557 102.431C122.473 102.457 122.385 102.464 122.298 102.453C122.246 102.446 122.169 102.425 121.522 102.11L120.876 101.796L120.775 101.746C120.348 101.538 119.92 101.328 119.454 101.257C119.047 101.195 118.632 101.216 118.233 101.319C117.777 101.436 117.371 101.688 116.968 101.938L116.872 101.998L114.507 103.46C114.286 103.597 114 103.438 114 103.178V96.8222ZM114.605 106.273C114.416 106.39 114.321 106.449 114.254 106.537C114.198 106.609 114.152 106.712 114.136 106.802C114.116 106.911 114.134 107.007 114.169 107.2C114.248 107.632 114.363 107.998 114.533 108.331C115.002 109.251 115.749 109.998 116.669 110.467C117.715 111 119.084 111 121.822 111H128.178C130.916 111 132.285 111 133.331 110.467C134.251 109.998 134.998 109.251 135.467 108.331C135.734 107.807 135.867 107.201 135.934 106.383C135.949 106.192 135.957 106.096 135.933 106C135.913 105.918 135.871 105.832 135.819 105.766C135.757 105.688 135.671 105.632 135.5 105.521L129.676 101.726C128.989 101.278 128.902 101.244 128.846 101.231C128.75 101.21 128.651 101.212 128.556 101.237C128.501 101.252 128.416 101.29 127.748 101.767L124.685 103.953L124.586 104.024C124.172 104.321 123.756 104.62 123.275 104.767C122.856 104.896 122.413 104.933 121.978 104.876C121.48 104.81 121.02 104.585 120.562 104.361L120.452 104.308L119.806 103.994C119.206 103.701 119.135 103.681 119.086 103.674C119.005 103.661 118.922 103.666 118.842 103.686C118.795 103.698 118.726 103.725 118.158 104.077L114.605 106.273ZM123.778 96.3333C123.778 97.6834 122.683 98.7778 121.333 98.7778C119.983 98.7778 118.889 97.6834 118.889 96.3333C118.889 94.9833 119.983 93.8889 121.333 93.8889C122.683 93.8889 123.778 94.9833 123.778 96.3333Z" fill="white"/>
</svg>
