<svg width="19" height="19" viewBox="0 0 19 19" fill="none" xmlns="http://www.w3.org/2000/svg">
<path d="M14.7064 4.92127C13.7227 4.48524 12.682 4.17542 11.6118 4C11.4785 4.22831 11.3228 4.53538 11.2154 4.77967C10.0616 4.61531 8.91833 4.61531 7.78572 4.77967C7.67837 4.53543 7.51911 4.22831 7.38458 4C6.31337 4.1755 5.27179 4.48611 4.28761 4.92355C2.32918 7.72721 1.79826 10.4612 2.06369 13.1564C3.36265 14.0753 4.62148 14.6336 5.8591 14.9989C6.16667 14.5982 6.43857 14.174 6.67197 13.7306C6.22761 13.5703 5.79923 13.3728 5.39193 13.1404C5.49911 13.0652 5.60377 12.9867 5.70576 12.9052C8.17384 13.9989 10.8556 13.9989 13.2942 12.9052C13.3967 12.9862 13.5013 13.0646 13.608 13.1404C13.2 13.3734 12.7709 13.5713 12.3256 13.7317C12.5603 14.1769 12.8317 14.6016 13.1385 15C14.3773 14.6348 15.6373 14.0765 16.9362 13.1564C17.2477 10.032 16.4042 7.32311 14.7064 4.92127ZM7.00824 11.4989C6.26732 11.4989 5.6597 10.8436 5.6597 10.0457C5.6597 9.24774 6.25437 8.59136 7.00824 8.59136C7.76216 8.59136 8.36972 9.24658 8.35677 10.0457C8.35794 10.8436 7.76216 11.4989 7.00824 11.4989ZM11.9917 11.4989C11.2508 11.4989 10.6432 10.8436 10.6432 10.0457C10.6432 9.24774 11.2378 8.59136 11.9917 8.59136C12.7456 8.59136 13.3532 9.24658 13.3402 10.0457C13.3402 10.8436 12.7456 11.4989 11.9917 11.4989Z" fill="white"/>
</svg>
