<svg width="16" height="17" viewBox="0 0 16 17" fill="none" xmlns="http://www.w3.org/2000/svg">
<path fill-rule="evenodd" clip-rule="evenodd" d="M14.9258 9.25234C15.5191 9.25234 16 8.79126 16 8.22248C16 7.6537 15.5191 7.19261 14.9258 7.19261C14.3325 7.19261 13.8516 7.6537 13.8516 8.22248C13.8516 8.79126 14.3325 9.25234 14.9258 9.25234ZM2.29712 12.536C0.517292 9.58053 1.57352 5.8014 4.65627 4.09506C4.85962 3.98251 5.06655 3.88183 5.27622 3.79279C4.95228 5.80533 5.3146 7.93454 6.4595 9.83568C7.75581 11.9882 9.81735 13.4536 12.1229 14.0987C11.8129 14.358 11.472 14.5927 11.1016 14.7977C8.01885 16.5041 4.07695 15.4915 2.29712 12.536ZM3.94013 2.90587C0.172318 4.9914 -1.11863 9.61034 1.05672 13.2226C3.23206 16.8348 8.04994 18.0724 11.8177 15.9869C12.7137 15.491 13.4708 14.8507 14.0744 14.1139C14.4136 13.6998 14.1605 13.0889 13.6173 13.0109C11.2196 12.6664 9.00517 11.3165 7.6999 9.1491C6.52304 7.19489 6.31626 4.96009 6.93717 2.9539C7.0935 2.44881 6.62268 1.9701 6.08756 2.09005C5.35085 2.25519 4.62743 2.52545 3.94013 2.90587Z" fill="white"/>
<path fill-rule="evenodd" clip-rule="evenodd" d="M12 0C11.6318 0 11.3333 0.285418 11.3333 0.6375V1.4875H10.4444C10.0763 1.4875 9.77778 1.77292 9.77778 2.125C9.77778 2.47708 10.0763 2.7625 10.4444 2.7625H11.3333V3.6125C11.3333 3.96458 11.6318 4.25 12 4.25C12.3682 4.25 12.6667 3.96458 12.6667 3.6125V2.7625H13.5556C13.9237 2.7625 14.2222 2.47708 14.2222 2.125C14.2222 1.77292 13.9237 1.4875 13.5556 1.4875H12.6667V0.6375C12.6667 0.285418 12.3682 0 12 0Z" fill="white"/>
<path d="M4.65627 4.09506C1.57352 5.8014 0.517292 9.58053 2.29712 12.536C4.07695 15.4915 8.01885 16.5041 11.1016 14.7977C11.472 14.5927 11.8129 14.358 12.1229 14.0987C9.81735 13.4536 7.75581 11.9882 6.4595 9.83568C5.3146 7.93454 4.95228 5.80533 5.27622 3.79279C5.06655 3.88183 4.85962 3.98251 4.65627 4.09506Z" fill="white"/>
</svg>
