<svg width="255" height="235" viewBox="0 0 255 235" fill="none" xmlns="http://www.w3.org/2000/svg">
<rect width="255" height="235" fill="#1F252F"/>
<rect x="0.5" y="0.5" width="254" height="234" stroke="white" stroke-opacity="0.15"/>
<path fill-rule="evenodd" clip-rule="evenodd" d="M117 114.822C117 112.084 117 110.715 117.533 109.669C118.002 108.749 118.749 108.002 119.669 107.533C120.715 107 122.084 107 124.822 107H131.178C133.916 107 135.285 107 136.331 107.533C137.251 108.002 137.998 108.749 138.467 109.669C139 110.715 139 112.084 139 114.822V119.125C139 119.712 139 120.005 138.877 120.168C138.771 120.311 138.607 120.399 138.43 120.411C138.226 120.425 137.98 120.264 137.488 119.944L134.011 117.678L133.894 117.601C133.41 117.284 132.925 116.967 132.375 116.845C131.897 116.739 131.4 116.749 130.926 116.876C130.382 117.021 129.911 117.359 129.441 117.696L129.327 117.777L126.265 119.964C125.679 120.382 125.607 120.416 125.557 120.431C125.473 120.457 125.385 120.464 125.298 120.453C125.246 120.446 125.169 120.425 124.522 120.11L123.876 119.796L123.775 119.746C123.348 119.538 122.92 119.328 122.454 119.257C122.047 119.195 121.632 119.216 121.233 119.319C120.777 119.436 120.371 119.688 119.968 119.938L119.872 119.998L117.507 121.46C117.286 121.597 117 121.438 117 121.178V114.822ZM117.605 124.273C117.416 124.39 117.321 124.449 117.254 124.537C117.198 124.609 117.152 124.712 117.136 124.802C117.116 124.911 117.134 125.007 117.169 125.2C117.248 125.632 117.363 125.998 117.533 126.331C118.002 127.251 118.749 127.998 119.669 128.467C120.715 129 122.084 129 124.822 129H131.178C133.916 129 135.285 129 136.331 128.467C137.251 127.998 137.998 127.251 138.467 126.331C138.734 125.807 138.867 125.201 138.934 124.383C138.949 124.192 138.957 124.096 138.933 124C138.913 123.918 138.871 123.832 138.819 123.766C138.757 123.688 138.671 123.632 138.5 123.521L132.676 119.726C131.989 119.278 131.902 119.244 131.846 119.231C131.75 119.21 131.651 119.212 131.556 119.237C131.501 119.252 131.416 119.29 130.748 119.767L127.685 121.953L127.586 122.024C127.172 122.321 126.756 122.62 126.275 122.767C125.856 122.896 125.413 122.933 124.978 122.876C124.48 122.81 124.02 122.585 123.562 122.361L123.452 122.308L122.806 121.994C122.206 121.701 122.135 121.681 122.086 121.674C122.005 121.661 121.922 121.666 121.842 121.686C121.795 121.698 121.726 121.725 121.158 122.077L117.605 124.273ZM126.778 114.333C126.778 115.683 125.683 116.778 124.333 116.778C122.983 116.778 121.889 115.683 121.889 114.333C121.889 112.983 122.983 111.889 124.333 111.889C125.683 111.889 126.778 112.983 126.778 114.333Z" fill="white"/>
</svg>
