<svg width="19" height="19" viewBox="0 0 19 19" fill="none" xmlns="http://www.w3.org/2000/svg">
<path d="M9.49798 6.99894C8.12083 6.99894 6.99697 8.12282 6.99697 9.5C6.99697 10.8772 8.12083 12.0011 9.49798 12.0011C10.8751 12.0011 11.999 10.8772 11.999 9.5C11.999 8.12282 10.8751 6.99894 9.49798 6.99894ZM16.9992 9.5C16.9992 8.4643 17.0085 7.43798 16.9504 6.40416C16.8922 5.20335 16.6183 4.13763 15.7402 3.25953C14.8603 2.37956 13.7964 2.10751 12.5956 2.04934C11.56 1.99118 10.5337 2.00056 9.49986 2.00056C8.46418 2.00056 7.43788 1.99118 6.40408 2.04934C5.20329 2.10751 4.13759 2.38144 3.25951 3.25953C2.37956 4.1395 2.1075 5.20335 2.04934 6.40416C1.99118 7.43986 2.00056 8.46618 2.00056 9.5C2.00056 10.5338 1.99118 11.562 2.04934 12.5958C2.1075 13.7967 2.38143 14.8624 3.25951 15.7405C4.13946 16.6204 5.20329 16.8925 6.40408 16.9507C7.43976 17.0088 8.46606 16.9994 9.49986 16.9994C10.5355 16.9994 11.5618 17.0088 12.5956 16.9507C13.7964 16.8925 14.8621 16.6186 15.7402 15.7405C16.6202 14.8605 16.8922 13.7967 16.9504 12.5958C17.0104 11.562 16.9992 10.5357 16.9992 9.5ZM9.49798 13.3482C7.36846 13.3482 5.64983 11.6296 5.64983 9.5C5.64983 7.37044 7.36846 5.65177 9.49798 5.65177C11.6275 5.65177 13.3461 7.37044 13.3461 9.5C13.3461 11.6296 11.6275 13.3482 9.49798 13.3482ZM13.5037 6.3929C13.0065 6.3929 12.605 5.99138 12.605 5.49417C12.605 4.99696 13.0065 4.59544 13.5037 4.59544C14.0009 4.59544 14.4025 4.99696 14.4025 5.49417C14.4026 5.61223 14.3795 5.72917 14.3343 5.83827C14.2892 5.94738 14.223 6.04651 14.1396 6.13C14.0561 6.21348 13.9569 6.27968 13.8478 6.32479C13.7387 6.3699 13.6218 6.39305 13.5037 6.3929Z" fill="white"/>
</svg>
