<svg width="20" height="20" viewBox="0 0 20 20" fill="none" xmlns="http://www.w3.org/2000/svg">
<path fill-rule="evenodd" clip-rule="evenodd" d="M11.9921 11.9921C12.426 11.5582 13.1295 11.5582 13.5635 11.9921L19.6746 18.1032C20.1085 18.5371 20.1085 19.2407 19.6746 19.6746C19.2407 20.1085 18.5371 20.1085 18.1032 19.6746L11.9921 13.5635C11.5582 13.1295 11.5582 12.426 11.9921 11.9921Z" fill="#171D27"/>
<path fill-rule="evenodd" clip-rule="evenodd" d="M7.77778 2.22222C4.70953 2.22222 2.22222 4.70953 2.22222 7.77778C2.22222 10.846 4.70953 13.3333 7.77778 13.3333C10.846 13.3333 13.3333 10.846 13.3333 7.77778C13.3333 4.70953 10.846 2.22222 7.77778 2.22222ZM0 7.77778C0 3.48223 3.48223 0 7.77778 0C12.0733 0 15.5556 3.48223 15.5556 7.77778C15.5556 12.0733 12.0733 15.5556 7.77778 15.5556C3.48223 15.5556 0 12.0733 0 7.77778Z" fill="#171D27"/>
</svg>
