<svg width="19" height="19" viewBox="0 0 19 19" fill="none" xmlns="http://www.w3.org/2000/svg">
<path d="M17 9.60435C17 8.71687 16.2609 8.012 15.3602 8.012C14.9347 8.01144 14.5255 8.17044 14.2178 8.45583C13.0888 7.67261 11.543 7.16369 9.82264 7.09843L10.5752 3.67878L13.0214 4.1877C13.0485 4.78813 13.5591 5.27113 14.191 5.27113C14.8361 5.27113 15.3602 4.76221 15.3602 4.13544C15.3602 3.509 14.8361 3 14.191 3C13.734 3 13.3306 3.26104 13.1425 3.63961L10.4141 3.07835C10.3334 3.06518 10.2527 3.07835 10.1989 3.11752C10.1317 3.15669 10.0915 3.22187 10.0782 3.30022L9.24457 7.11135C7.49733 7.16369 5.92466 7.67261 4.78227 8.46891C4.47457 8.18353 4.06527 8.02456 3.63978 8.02517C2.72578 8.02517 2 8.74287 2 9.61752C2 10.27 2.40314 10.8181 2.96782 11.0663C2.9404 11.2259 2.92691 11.3875 2.92748 11.5493C2.92748 14.0028 5.87111 16 9.50009 16C13.1292 16 16.0728 14.016 16.0728 11.5493C16.0727 11.3875 16.0592 11.226 16.0324 11.0663C16.5969 10.8181 17 10.2569 17 9.60435ZM5.73652 10.7398C5.73652 10.1133 6.2606 9.60435 6.90605 9.60435C7.55115 9.60435 8.07531 10.1133 8.07531 10.7398C8.07531 11.3663 7.55123 11.8755 6.90605 11.8755C6.26069 11.8883 5.73652 11.3663 5.73652 10.7398ZM12.2824 13.7549C11.4759 14.5381 9.94357 14.5903 9.50009 14.5903C9.04313 14.5903 7.51089 14.5249 6.71765 13.7549C6.59689 13.6374 6.59689 13.4547 6.71765 13.3372C6.83867 13.22 7.02681 13.22 7.14783 13.3372C7.65869 13.8333 8.73397 14.0028 9.50009 14.0028C10.2663 14.0028 11.3549 13.8332 11.8522 13.3372C11.9732 13.22 12.1613 13.22 12.2824 13.3372C12.3898 13.4547 12.3898 13.6374 12.2824 13.7549ZM12.0672 11.8884C11.422 11.8884 10.8979 11.3795 10.8979 10.753C10.8979 10.1264 11.422 9.61752 12.0672 9.61752C12.7125 9.61752 13.2366 10.1264 13.2366 10.753C13.2366 11.3662 12.7125 11.8884 12.0672 11.8884Z" fill="white"/>
</svg>
