<svg width="463" height="92" viewBox="0 0 463 92" fill="none" xmlns="http://www.w3.org/2000/svg">
<path fill-rule="evenodd" clip-rule="evenodd" d="M0 92V0H462.222V92H0ZM191.094 86.81H457.033V5.18997H191.094V86.81ZM63.6959 54.4506C63.6959 48.5807 58.7742 43.9253 50.1237 41.9012C49.1791 41.6988 44.5059 40.5855 43.6608 40.3325C37.347 38.7639 36.2532 38.2072 36.2532 37.1446C36.2532 35.9301 38.2418 34.5639 43.5613 34.5639C48.0357 34.5639 52.7089 36.6386 55.6918 39.7759L63.0496 32.2867C58.1776 27.6819 51.814 25 43.9093 25C32.276 25 25.117 30.2627 25.117 37.4482C25.117 45.0386 32.624 47.8217 39.6338 49.5422C40.4406 49.715 44.6921 50.7368 46.4425 51.1575L46.4452 51.1581L46.4457 51.1582L46.4463 51.1584L46.4468 51.1585L47.0911 51.3133C52.2118 52.4771 52.5598 53.8434 52.5598 54.5012C52.5598 55.8169 51.2672 57.3349 45.3511 57.3349C40.8767 57.3349 35.2589 55.412 31.6794 51.9711L24.2222 59.5614C29.84 64.6723 36.7504 67 44.5059 67C57.3324 67 63.6959 61.2819 63.6959 54.4506ZM107.473 25.506H96.4858V40.1301L97.4801 41.1422H78.1409L79.1352 40.1301V25.506H68.1482V66.494H79.1352V51.8699L78.1409 50.8578H97.4801L96.4858 51.8699V66.494H107.473V25.506ZM114.17 25.506H125.157V66.494H114.17V25.506ZM167.222 25.506H128.395V35.1711H142.911L142.315 36.1831V66.494H153.302V36.1831L152.755 35.1711H167.222V25.506ZM419.641 41.9012C428.297 43.9253 433.222 48.5807 433.222 54.4506C433.222 61.2819 426.854 67 414.02 67C406.259 67 399.344 64.6723 393.723 59.5614L401.185 51.9711C404.767 55.412 410.388 57.3349 414.865 57.3349C420.785 57.3349 422.079 55.8169 422.079 54.5012C422.079 53.8434 421.73 52.4771 416.607 51.3133L415.963 51.1587L415.962 51.1585L415.95 51.1557C414.194 50.7339 409.95 49.7148 409.144 49.5422C402.13 47.8217 394.618 45.0386 394.618 37.4482C394.618 30.2627 401.782 25 413.423 25C421.333 25 427.7 27.6819 432.575 32.2867L425.213 39.7759C422.228 36.6386 417.552 34.5639 413.074 34.5639C407.751 34.5639 405.762 35.9301 405.762 37.1446C405.762 38.2072 406.856 38.7639 413.174 40.3325C414.02 40.5855 418.696 41.6988 419.641 41.9012ZM242.036 39.2699C242.036 41.5976 240.842 43.3181 236.713 43.3181H225.221L226.216 42.306V36.1831L225.221 35.1711H236.763C240.892 35.1711 242.036 36.7904 242.036 39.2699ZM253.18 39.2699C253.18 31.1229 247.16 25.506 236.763 25.506H215.222V66.494H226.216V54.0458L225.221 53.0337H236.713C247.16 53.0337 253.18 47.1133 253.18 39.2699ZM297.626 25.506H286.632V47.4675C286.632 54.2482 284.144 57.3349 277.428 57.3349C270.563 57.3349 268.175 54.2988 268.175 47.4675V25.506H257.181V47.5181C257.181 59.8145 263.847 67 277.428 67C291.059 67 297.626 59.7133 297.626 47.5181V25.506ZM332.22 25.506H343.214V66.494H334.21L318.589 48.2771L314.958 42.9133H314.858V66.494H303.864V25.506H312.819L328.638 43.7229L332.121 48.7831H332.22V25.506ZM360.661 25.506H349.667V66.494H360.661V25.506ZM374.789 45.8482L393.146 25.5566H378.62L361.208 45.8482L379.068 66.494H393.743L374.789 45.8482Z" fill="#212731"/>
</svg>
